<svg width="26" height="21" viewBox="0 0 26 21" fill="none" xmlns="http://www.w3.org/2000/svg">
<g clip-path="url(#clip0_1_97)">
<path d="M0 10.312C0.105998 10.1848 0.195744 10.0373 0.320822 9.93264C4.08235 6.80588 7.846 3.68264 11.6111 0.560809C12.5142 -0.188038 13.4887 -0.185931 14.3932 0.565024C15.5698 1.54148 16.7435 2.52144 17.918 3.5C17.9816 3.55339 18.0487 3.60326 18.149 3.68264C18.1554 3.56603 18.1632 3.48735 18.1632 3.40868C18.1639 2.51512 18.1632 1.62156 18.1646 0.728C18.1653 0.216592 18.3335 0.0522111 18.8522 0.0515086C19.7744 0.0501036 20.6973 0.0501036 21.6194 0.0515086C22.1134 0.0529136 22.2908 0.231344 22.2908 0.72519C22.2915 2.77363 22.2943 4.82137 22.2865 6.86981C22.2865 7.05878 22.3459 7.17679 22.4893 7.29411C23.5486 8.16097 24.6001 9.03627 25.6552 9.90805C26.0848 10.2628 26.1088 10.5059 25.7548 10.9266C25.494 11.2364 25.2347 11.5483 24.9718 11.8567C24.68 12.1988 24.4015 12.2234 24.0546 11.9347C20.4803 8.96672 16.906 5.99873 13.3318 3.03004C13.2279 2.94433 13.124 2.85863 13.0004 2.75677C12.5954 3.09186 12.1934 3.42413 11.7927 3.75711C8.51733 6.47712 5.24268 9.19714 1.96733 11.9172C1.59422 12.2269 1.32215 12.2052 1.01335 11.8364C0.67203 11.4317 0.337075 11.0229 0 10.6154C0 10.5143 0 10.4131 0 10.312Z" fill="#5E366A"/>
<path d="M15.0674 20.5912V14.4726H10.9306V20.6207C10.8133 20.6207 10.7221 20.6207 10.6317 20.6207C8.72796 20.6207 6.82423 20.6207 4.9205 20.6207C4.1241 20.6207 3.70929 20.2112 3.70859 19.4272C3.70859 16.9748 3.71 14.5224 3.70435 12.0694C3.70435 11.8741 3.76229 11.7483 3.91634 11.6219C6.86451 9.20956 9.80703 6.79021 12.751 4.37297C12.8287 4.30904 12.9078 4.24793 13.0025 4.17346C13.2492 4.37507 13.4894 4.57107 13.7297 4.76846C16.5302 7.06769 19.3313 9.36622 22.1262 11.6725C22.2138 11.7448 22.2837 11.8945 22.2837 12.0083C22.2929 14.5112 22.2922 17.0142 22.2894 19.5178C22.2887 20.155 21.8732 20.6109 21.2421 20.6151C19.2197 20.6284 17.1979 20.62 15.1755 20.6186C15.1515 20.6186 15.1281 20.6074 15.0674 20.5919V20.5912Z" fill="#5E366A"/>
</g>
<defs>
<clipPath id="clip0_1_97">
<rect width="26" height="20.6207" fill="white"/>
</clipPath>
</defs>
</svg>
