<svg width="27" height="29" viewBox="0 0 27 29" fill="none" xmlns="http://www.w3.org/2000/svg">
<g clip-path="url(#clip0_775_2)">
<path d="M19.7421 13.3308C19.1818 11.606 18.3471 10.0291 17.3075 8.56361C16.1224 6.89342 14.7579 5.40464 12.998 4.35714C12.1155 3.83226 11.1864 3.42225 10.114 3.58602C9.33931 3.70488 8.77286 4.11659 8.403 4.80924C8.21029 5.16921 8.06145 5.55363 7.88374 5.9227C6.64254 8.50674 5.39911 11.0902 4.15846 13.6748C4.0907 13.8159 3.99574 13.9142 3.86856 14.0024C3.0683 14.5546 2.26638 15.1039 1.48056 15.6771C0.624764 16.3015 0.148274 17.1813 0.0255419 18.2344C-0.0755318 19.0971 0.129392 19.9075 0.584224 20.6547C1.59385 22.3124 3.57811 23.0352 5.34468 22.0974C5.62958 21.9462 5.73898 22.003 5.89337 22.2373C7.08404 24.0491 8.28415 25.8541 9.4776 27.663C9.82969 28.1964 10.2412 28.64 10.8626 28.8521C11.077 28.9255 11.308 28.8851 11.5074 29H11.6185C11.7212 28.8771 11.8578 28.9636 11.9767 28.942C13.6066 28.648 14.4385 26.7025 13.5183 25.2894C12.4432 23.6374 11.3447 22.0008 10.2595 20.3556C10.1973 20.2606 10.059 20.1594 10.1346 20.0417C10.199 19.941 10.3523 19.9547 10.4733 19.9626C10.8243 19.9843 11.1703 19.9166 11.518 19.8944C12.5542 19.8273 13.5866 19.7084 14.6218 19.6231C15.4471 19.5549 16.2762 19.5276 17.0987 19.4395C17.4313 19.4036 17.7684 19.4474 18.0911 19.3798C19.5672 19.0727 20.1075 17.9439 20.2158 16.7303C20.3202 15.5657 20.1014 14.4369 19.7421 13.3308ZM4.82765 20.9482C4.48722 21.1534 4.11458 21.2422 3.74361 21.2109C2.38356 21.2808 1.39337 19.9803 1.28619 18.9794C1.17067 17.8961 1.59274 17.1079 2.44354 16.5171C3.03609 16.1059 3.63309 15.701 4.22288 15.2853C4.33894 15.2034 4.3967 15.1665 4.49666 15.32C5.33968 16.6086 6.1927 17.891 7.04461 19.1733C7.11347 19.2768 7.16401 19.3621 7.02795 19.4531C6.291 19.9456 5.58682 20.4904 4.82765 20.9482ZM12.4315 25.8893C12.8763 26.5564 12.6153 27.4902 11.7912 27.6625C11.3586 27.7529 10.9793 27.6312 10.7238 27.2553C10.089 26.321 9.47093 25.3747 8.84616 24.433C8.17475 23.4213 7.50666 22.4074 6.82858 21.4008C6.72584 21.2478 6.72473 21.1824 6.88744 21.0778C7.29896 20.8128 7.69826 20.5268 8.09644 20.2396C8.20029 20.1645 8.29914 20.1128 8.42965 20.1355C8.56571 20.1014 8.64069 20.1748 8.71566 20.2885C9.95076 22.1577 11.1881 24.0258 12.4315 25.8893ZM14.6118 18.318C14.5702 18.4164 14.4641 18.3618 14.3869 18.3687C13.5089 18.4454 12.6303 18.5233 11.7518 18.5927C11.1736 18.6388 10.595 18.6683 10.0168 18.7121C9.55979 18.7468 9.10329 18.7917 8.55683 18.8407C8.38467 18.9004 8.2525 18.7536 8.11699 18.5455C7.21344 17.1608 6.301 15.7823 5.38356 14.4073C5.29859 14.2793 5.28859 14.1866 5.35412 14.0507C6.2077 12.277 7.05461 10.4999 7.90818 8.72625C7.95261 8.63412 7.95872 8.46295 8.097 8.48513C8.22084 8.50504 8.16197 8.66142 8.18752 8.75582C8.54905 10.107 9.07386 11.3882 9.7586 12.6C10.6161 14.1161 11.6274 15.5128 12.8558 16.7371C13.3578 17.2381 13.8837 17.7107 14.4663 18.1139C14.5307 18.1582 14.6646 18.1929 14.6118 18.318ZM18.9991 16.3413C18.9941 16.6791 18.9335 17.0129 18.8225 17.3314C18.6364 17.8642 18.2682 18.0855 17.7834 18.086C16.861 18.1082 16.2379 17.7556 15.6359 17.3792C14.1081 16.4232 12.9158 15.1022 11.8817 13.6282C10.8676 12.1832 10.0452 10.6336 9.5398 8.91846C9.33765 8.2315 9.21047 7.5309 9.19215 6.82063C9.18104 6.39811 9.23602 5.96762 9.41484 5.56045C9.72306 4.85871 10.2706 4.74896 10.9032 4.86895C12.0205 5.0822 12.9302 5.72707 13.7666 6.4709C16.0013 8.4567 17.604 10.8872 18.5626 13.7556C18.8414 14.5915 19.0124 15.4525 18.9991 16.3413ZM11.4458 9.55139C11.3302 9.62703 11.2269 9.71972 11.1697 9.85677C11.0631 10.1115 11.1159 10.3913 11.3114 10.5807C11.5118 10.7752 11.7679 10.8156 12.0211 10.6745C12.3532 10.4903 12.6792 10.2964 13.0502 10.3572C14.0681 10.2685 14.9406 11.1846 14.8911 12.2452C14.8628 12.8514 14.6001 13.3365 14.117 13.6993C13.7938 13.9421 13.7427 14.3066 13.9676 14.6126C14.172 14.8912 14.5435 14.9464 14.8456 14.7178C15.8608 13.9501 16.3239 12.8946 16.0963 11.643C15.6853 9.38705 13.2873 8.35491 11.4458 9.55139Z" fill="#6C767C"/>
<path d="M20.4418 7.16813C20.4152 6.93782 20.5351 6.77518 20.7101 6.65633C21.9785 5.79422 23.2469 4.93268 24.5214 4.07967C24.828 3.87438 25.1917 3.97276 25.385 4.28041C25.5832 4.59546 25.5033 4.93154 25.1584 5.16925C24.5492 5.58893 23.9355 6.00122 23.3224 6.41521C22.6793 6.84967 22.0362 7.28357 21.3909 7.71406C21.1815 7.85338 20.9561 7.8602 20.7434 7.73225C20.5418 7.61056 20.4152 7.43086 20.4424 7.16813H20.4418Z" fill="#6C767C"/>
<path d="M27 11.6811C27.0039 12.107 26.6273 12.4147 26.2253 12.3356C25.2423 12.1429 24.2571 11.962 23.273 11.7761C22.7999 11.6862 22.3239 11.6072 21.8541 11.5014C21.4837 11.4178 21.2666 11.0806 21.3421 10.7587C21.4276 10.3948 21.7714 10.1923 22.1423 10.2611C23.458 10.5057 24.7758 10.7405 26.092 10.9822C26.2614 11.0135 26.4319 11.0482 26.5946 11.1045C26.8523 11.1932 26.9978 11.4144 27.0005 11.6817L27 11.6811Z" fill="#6C767C"/>
<path d="M19.3345 0.811469C19.2712 1.36536 19.1946 2.00739 19.1251 2.64942C19.0791 3.07763 19.0441 3.50697 19.0008 3.93518C18.9741 4.1945 18.9652 4.45893 18.9041 4.71028C18.8064 5.1129 18.492 5.31478 18.1511 5.2346C17.8412 5.16181 17.6207 4.77909 17.6718 4.41628C17.7923 3.5627 17.8689 2.70344 17.9495 1.84531C17.9889 1.42734 18.035 1.0088 18.1055 0.595373C18.1844 0.13418 18.4282 -0.0432453 18.8497 0.00850384C19.1351 0.0437615 19.3356 0.338334 19.3351 0.811469H19.3345Z" fill="#6C767C"/>
<path d="M14.8456 14.7178C14.5435 14.9464 14.172 14.8913 13.9676 14.6126C13.7427 14.3067 13.7938 13.9422 14.117 13.6993C14.6001 13.3365 14.8628 12.8514 14.8911 12.2452C14.9406 11.1847 14.0681 10.2685 13.0502 10.3572C12.6792 10.2964 12.3532 10.4903 12.0211 10.6746C11.7679 10.8156 11.5118 10.7752 11.3114 10.5807C11.1159 10.3914 11.0631 10.1116 11.1697 9.85681C11.2269 9.71976 11.3302 9.62707 11.4457 9.55144C13.2873 8.35495 15.6853 9.38709 16.0962 11.643C16.3239 12.8947 15.8608 13.9501 14.8456 14.7178Z" fill="#FEFEFE"/>
<path d="M14.8456 14.7178C14.5435 14.9464 14.172 14.8913 13.9676 14.6126C13.7427 14.3067 13.7938 13.9422 14.117 13.6993C14.6001 13.3365 14.8628 12.8514 14.8911 12.2452C14.9406 11.1847 14.0681 10.2685 13.0502 10.3572C12.6792 10.2964 12.3532 10.4903 12.0211 10.6746C11.7679 10.8156 11.5118 10.7752 11.3114 10.5807C11.1159 10.3914 11.0631 10.1116 11.1697 9.85681C11.2269 9.71976 11.3302 9.62707 11.4457 9.55144C13.2873 8.35495 15.6853 9.38709 16.0962 11.643C16.3239 12.8947 15.8608 13.9501 14.8456 14.7178Z" fill="#6C767C"/>
</g>
<defs>
<clipPath id="clip0_775_2">
<rect width="27" height="29" fill="white"/>
</clipPath>
</defs>
</svg>
